<svg class="sg-map-svg" viewBox="0 0 210 84" role="img"
     aria-label="Approximate location on a world map"
     data-w="210" data-h="84" data-lat-top="84" data-lat-bot="-60"
     xmlns="http://www.w3.org/2000/svg">
  <path class="sg-map-dots" d="M70.0 2.3h.01M72.9 2.3h.01M75.8 2.3h.01M78.8 2.3h.01M81.7 2.3h.01M84.6 2.3h.01M87.5 2.3h.01M90.4 2.3h.01M93.3 2.3h.01M140.0 2.3h.01M142.9 2.3h.01M145.8 2.3h.01M148.8 2.3h.01M151.7 2.3h.01M154.6 2.3h.01M157.5 2.3h.01M160.4 2.3h.01M163.3 2.3h.01M166.2 2.3h.01M169.2 2.3h.01M35.0 5.2h.01M37.9 5.2h.01M40.8 5.2h.01M43.8 5.2h.01M46.7 5.2h.01M49.6 5.2h.01M52.5 5.2h.01M55.4 5.2h.01M58.3 5.2h.01M61.3 5.2h.01M64.2 5.2h.01M70.0 5.2h.01M72.9 5.2h.01M75.8 5.2h.01M78.8 5.2h.01M81.7 5.2h.01M84.6 5.2h.01M87.5 5.2h.01M90.4 5.2h.01M93.3 5.2h.01M140.0 5.2h.01M142.9 5.2h.01M145.8 5.2h.01M148.8 5.2h.01M151.7 5.2h.01M154.6 5.2h.01M157.5 5.2h.01M160.4 5.2h.01M163.3 5.2h.01M166.2 5.2h.01M169.2 5.2h.01M172.1 5.2h.01M175.0 5.2h.01M177.9 5.2h.01M180.8 5.2h.01M183.8 5.2h.01M186.7 5.2h.01M11.7 8.2h.01M14.6 8.2h.01M17.5 8.2h.01M20.4 8.2h.01M23.3 8.2h.01M26.2 8.2h.01M29.2 8.2h.01M32.1 8.2h.01M35.0 8.2h.01M37.9 8.2h.01M40.8 8.2h.01M43.8 8.2h.01M46.7 8.2h.01M49.6 8.2h.01M52.5 8.2h.01M55.4 8.2h.01M58.3 8.2h.01M61.3 8.2h.01M64.2 8.2h.01M75.8 8.2h.01M78.8 8.2h.01M81.7 8.2h.01M84.6 8.2h.01M87.5 8.2h.01M90.4 8.2h.01M110.8 8.2h.01M113.7 8.2h.01M116.7 8.2h.01M119.6 8.2h.01M122.5 8.2h.01M125.4 8.2h.01M128.3 8.2h.01M131.2 8.2h.01M134.2 8.2h.01M137.1 8.2h.01M140.0 8.2h.01M142.9 8.2h.01M145.8 8.2h.01M148.8 8.2h.01M151.7 8.2h.01M154.6 8.2h.01M157.5 8.2h.01M160.4 8.2h.01M163.3 8.2h.01M166.2 8.2h.01M169.2 8.2h.01M172.1 8.2h.01M175.0 8.2h.01M177.9 8.2h.01M180.8 8.2h.01M183.8 8.2h.01M186.7 8.2h.01M189.6 8.2h.01M192.5 8.2h.01M195.4 8.2h.01M198.3 8.2h.01M201.2 8.2h.01M204.2 8.2h.01M207.1 8.2h.01M210.0 8.2h.01M8.8 11.1h.01M11.7 11.1h.01M14.6 11.1h.01M17.5 11.1h.01M20.4 11.1h.01M23.3 11.1h.01M26.2 11.1h.01M29.2 11.1h.01M32.1 11.1h.01M35.0 11.1h.01M37.9 11.1h.01M40.8 11.1h.01M43.8 11.1h.01M46.7 11.1h.01M49.6 11.1h.01M52.5 11.1h.01M55.4 11.1h.01M58.3 11.1h.01M61.3 11.1h.01M64.2 11.1h.01M67.1 11.1h.01M70.0 11.1h.01M92.2 11.1h.01M95.1 11.1h.01M107.9 11.1h.01M110.8 11.1h.01M113.7 11.1h.01M116.7 11.1h.01M119.6 11.1h.01M122.5 11.1h.01M125.4 11.1h.01M128.3 11.1h.01M131.2 11.1h.01M134.2 11.1h.01M137.1 11.1h.01M140.0 11.1h.01M142.9 11.1h.01M145.8 11.1h.01M148.8 11.1h.01M151.7 11.1h.01M154.6 11.1h.01M157.5 11.1h.01M160.4 11.1h.01M163.3 11.1h.01M166.2 11.1h.01M169.2 11.1h.01M172.1 11.1h.01M175.0 11.1h.01M177.9 11.1h.01M180.8 11.1h.01M183.8 11.1h.01M186.7 11.1h.01M189.6 11.1h.01M192.5 11.1h.01M195.4 11.1h.01M198.3 11.1h.01M201.2 11.1h.01M204.2 11.1h.01M207.1 11.1h.01M210.0 11.1h.01M20.4 14.0h.01M23.3 14.0h.01M26.2 14.0h.01M29.2 14.0h.01M32.1 14.0h.01M35.0 14.0h.01M37.9 14.0h.01M40.8 14.0h.01M43.8 14.0h.01M46.7 14.0h.01M49.6 14.0h.01M52.5 14.0h.01M55.4 14.0h.01M58.3 14.0h.01M61.3 14.0h.01M64.2 14.0h.01M67.1 14.0h.01M70.0 14.0h.01M107.3 14.0h.01M110.2 14.0h.01M113.2 14.0h.01M116.1 14.0h.01M119.0 14.0h.01M121.9 14.0h.01M124.8 14.0h.01M127.7 14.0h.01M130.7 14.0h.01M133.6 14.0h.01M136.5 14.0h.01M139.4 14.0h.01M142.3 14.0h.01M145.2 14.0h.01M148.2 14.0h.01M151.1 14.0h.01M154.0 14.0h.01M156.9 14.0h.01M159.8 14.0h.01M162.8 14.0h.01M165.7 14.0h.01M168.6 14.0h.01M171.5 14.0h.01M174.4 14.0h.01M177.3 14.0h.01M180.2 14.0h.01M183.2 14.0h.01M186.1 14.0h.01M189.0 14.0h.01M191.9 14.0h.01M194.8 14.0h.01M197.8 14.0h.01M200.7 14.0h.01M203.6 14.0h.01M206.5 14.0h.01M209.4 14.0h.01M29.2 16.9h.01M32.1 16.9h.01M35.0 16.9h.01M37.9 16.9h.01M40.8 16.9h.01M43.8 16.9h.01M46.7 16.9h.01M49.6 16.9h.01M52.5 16.9h.01M55.4 16.9h.01M58.3 16.9h.01M61.3 16.9h.01M64.2 16.9h.01M67.1 16.9h.01M70.0 16.9h.01M99.2 16.9h.01M102.1 16.9h.01M105.0 16.9h.01M109.7 16.9h.01M112.6 16.9h.01M115.5 16.9h.01M118.4 16.9h.01M121.3 16.9h.01M124.2 16.9h.01M127.2 16.9h.01M130.1 16.9h.01M133.0 16.9h.01M135.9 16.9h.01M138.8 16.9h.01M141.8 16.9h.01M144.7 16.9h.01M147.6 16.9h.01M150.5 16.9h.01M153.4 16.9h.01M156.3 16.9h.01M159.2 16.9h.01M162.2 16.9h.01M165.1 16.9h.01M168.0 16.9h.01M170.9 16.9h.01M173.8 16.9h.01M176.8 16.9h.01M179.7 16.9h.01M182.6 16.9h.01M185.5 16.9h.01M195.4 16.9h.01M198.3 16.9h.01M201.2 16.9h.01M30.3 19.8h.01M33.2 19.8h.01M36.2 19.8h.01M39.1 19.8h.01M42.0 19.8h.01M44.9 19.8h.01M47.8 19.8h.01M50.8 19.8h.01M53.7 19.8h.01M56.6 19.8h.01M59.5 19.8h.01M62.4 19.8h.01M65.3 19.8h.01M68.2 19.8h.01M102.1 19.8h.01M105.0 19.8h.01M107.3 19.8h.01M110.2 19.8h.01M113.2 19.8h.01M116.1 19.8h.01M119.0 19.8h.01M121.9 19.8h.01M124.8 19.8h.01M127.7 19.8h.01M130.7 19.8h.01M133.6 19.8h.01M136.5 19.8h.01M139.4 19.8h.01M142.3 19.8h.01M145.2 19.8h.01M148.2 19.8h.01M151.1 19.8h.01M154.0 19.8h.01M156.9 19.8h.01M159.8 19.8h.01M162.8 19.8h.01M165.7 19.8h.01M168.6 19.8h.01M171.5 19.8h.01M174.4 19.8h.01M177.3 19.8h.01M180.2 19.8h.01M183.2 19.8h.01M186.1 19.8h.01M32.1 22.8h.01M35.0 22.8h.01M37.9 22.8h.01M40.8 22.8h.01M43.8 22.8h.01M46.7 22.8h.01M49.6 22.8h.01M52.5 22.8h.01M55.4 22.8h.01M58.3 22.8h.01M61.3 22.8h.01M64.2 22.8h.01M67.1 22.8h.01M103.8 22.8h.01M106.8 22.8h.01M109.7 22.8h.01M112.6 22.8h.01M115.5 22.8h.01M118.4 22.8h.01M121.3 22.8h.01M124.2 22.8h.01M127.2 22.8h.01M130.1 22.8h.01M133.0 22.8h.01M137.1 22.8h.01M140.0 22.8h.01M142.9 22.8h.01M145.8 22.8h.01M148.8 22.8h.01M151.7 22.8h.01M154.6 22.8h.01M157.5 22.8h.01M160.4 22.8h.01M163.3 22.8h.01M166.2 22.8h.01M169.2 22.8h.01M172.1 22.8h.01M175.0 22.8h.01M177.9 22.8h.01M180.8 22.8h.01M183.8 22.8h.01M186.7 22.8h.01M33.2 25.7h.01M36.2 25.7h.01M39.1 25.7h.01M42.0 25.7h.01M44.9 25.7h.01M47.8 25.7h.01M50.8 25.7h.01M53.7 25.7h.01M56.6 25.7h.01M59.5 25.7h.01M62.4 25.7h.01M99.8 25.7h.01M102.7 25.7h.01M105.6 25.7h.01M108.5 25.7h.01M111.4 25.7h.01M114.3 25.7h.01M117.2 25.7h.01M120.2 25.7h.01M123.1 25.7h.01M126.0 25.7h.01M128.9 25.7h.01M133.0 25.7h.01M135.9 25.7h.01M138.8 25.7h.01M141.8 25.7h.01M144.7 25.7h.01M147.6 25.7h.01M150.5 25.7h.01M153.4 25.7h.01M156.3 25.7h.01M159.2 25.7h.01M162.2 25.7h.01M165.1 25.7h.01M168.0 25.7h.01M170.9 25.7h.01M173.8 25.7h.01M176.8 25.7h.01M179.7 25.7h.01M182.6 25.7h.01M185.5 25.7h.01M34.4 28.6h.01M37.3 28.6h.01M40.2 28.6h.01M43.2 28.6h.01M46.1 28.6h.01M49.0 28.6h.01M51.9 28.6h.01M54.8 28.6h.01M57.8 28.6h.01M60.7 28.6h.01M99.8 28.6h.01M102.7 28.6h.01M105.6 28.6h.01M108.5 28.6h.01M111.4 28.6h.01M114.3 28.6h.01M117.2 28.6h.01M120.2 28.6h.01M123.1 28.6h.01M126.0 28.6h.01M128.9 28.6h.01M131.8 28.6h.01M134.8 28.6h.01M137.7 28.6h.01M142.3 28.6h.01M145.2 28.6h.01M148.2 28.6h.01M151.1 28.6h.01M154.0 28.6h.01M156.9 28.6h.01M159.8 28.6h.01M162.8 28.6h.01M165.7 28.6h.01M168.6 28.6h.01M171.5 28.6h.01M174.4 28.6h.01M177.3 28.6h.01M180.2 28.6h.01M183.2 28.6h.01M186.1 28.6h.01M37.3 31.5h.01M40.2 31.5h.01M43.2 31.5h.01M46.1 31.5h.01M49.0 31.5h.01M51.9 31.5h.01M54.8 31.5h.01M57.8 31.5h.01M98.6 31.5h.01M101.5 31.5h.01M104.4 31.5h.01M107.3 31.5h.01M110.2 31.5h.01M113.2 31.5h.01M116.1 31.5h.01M119.0 31.5h.01M121.9 31.5h.01M124.8 31.5h.01M127.7 31.5h.01M130.7 31.5h.01M133.6 31.5h.01M136.5 31.5h.01M139.4 31.5h.01M143.5 31.5h.01M146.4 31.5h.01M149.3 31.5h.01M152.2 31.5h.01M155.2 31.5h.01M158.1 31.5h.01M161.0 31.5h.01M163.9 31.5h.01M166.8 31.5h.01M169.8 31.5h.01M172.7 31.5h.01M175.6 31.5h.01M39.7 34.4h.01M42.6 34.4h.01M45.5 34.4h.01M48.4 34.4h.01M57.2 34.4h.01M95.7 34.4h.01M98.6 34.4h.01M101.5 34.4h.01M104.4 34.4h.01M107.3 34.4h.01M110.2 34.4h.01M113.2 34.4h.01M116.1 34.4h.01M119.0 34.4h.01M121.9 34.4h.01M124.8 34.4h.01M127.7 34.4h.01M130.7 34.4h.01M133.6 34.4h.01M136.5 34.4h.01M139.4 34.4h.01M144.7 34.4h.01M147.6 34.4h.01M150.5 34.4h.01M153.4 34.4h.01M156.3 34.4h.01M159.2 34.4h.01M162.2 34.4h.01M165.1 34.4h.01M168.0 34.4h.01M170.9 34.4h.01M173.8 34.4h.01M43.2 37.3h.01M46.1 37.3h.01M49.0 37.3h.01M51.9 37.3h.01M94.5 37.3h.01M97.4 37.3h.01M100.3 37.3h.01M103.2 37.3h.01M106.2 37.3h.01M109.1 37.3h.01M112.0 37.3h.01M114.9 37.3h.01M117.8 37.3h.01M120.7 37.3h.01M123.7 37.3h.01M126.6 37.3h.01M129.5 37.3h.01M132.4 37.3h.01M135.3 37.3h.01M147.0 37.3h.01M149.9 37.3h.01M152.8 37.3h.01M155.8 37.3h.01M158.7 37.3h.01M161.6 37.3h.01M164.5 37.3h.01M167.4 37.3h.01M49.0 40.2h.01M51.9 40.2h.01M54.8 40.2h.01M94.5 40.2h.01M97.4 40.2h.01M100.3 40.2h.01M103.2 40.2h.01M106.2 40.2h.01M109.1 40.2h.01M112.0 40.2h.01M114.9 40.2h.01M117.8 40.2h.01M120.7 40.2h.01M123.7 40.2h.01M126.6 40.2h.01M129.5 40.2h.01M147.0 40.2h.01M149.9 40.2h.01M152.8 40.2h.01M155.8 40.2h.01M158.7 40.2h.01M161.6 40.2h.01M164.5 40.2h.01M167.4 40.2h.01M54.8 43.2h.01M57.8 43.2h.01M60.7 43.2h.01M98.0 43.2h.01M100.9 43.2h.01M103.8 43.2h.01M106.8 43.2h.01M109.7 43.2h.01M112.6 43.2h.01M115.5 43.2h.01M118.4 43.2h.01M121.3 43.2h.01M124.2 43.2h.01M127.2 43.2h.01M130.1 43.2h.01M149.3 43.2h.01M161.0 43.2h.01M163.9 43.2h.01M166.8 43.2h.01M175.0 43.2h.01M58.9 46.1h.01M61.8 46.1h.01M108.5 46.1h.01M111.4 46.1h.01M114.3 46.1h.01M117.2 46.1h.01M120.2 46.1h.01M123.1 46.1h.01M126.0 46.1h.01M128.9 46.1h.01M131.8 46.1h.01M162.8 46.1h.01M165.7 46.1h.01M168.6 46.1h.01M171.5 46.1h.01M58.3 49.0h.01M61.3 49.0h.01M64.2 49.0h.01M67.1 49.0h.01M70.0 49.0h.01M72.9 49.0h.01M75.8 49.0h.01M110.2 49.0h.01M113.2 49.0h.01M116.1 49.0h.01M119.0 49.0h.01M121.9 49.0h.01M124.8 49.0h.01M127.7 49.0h.01M162.8 49.0h.01M165.7 49.0h.01M168.6 49.0h.01M171.5 49.0h.01M174.4 49.0h.01M177.3 49.0h.01M180.2 49.0h.01M58.9 51.9h.01M61.8 51.9h.01M64.8 51.9h.01M67.7 51.9h.01M70.6 51.9h.01M73.5 51.9h.01M76.4 51.9h.01M79.3 51.9h.01M82.2 51.9h.01M111.4 51.9h.01M114.3 51.9h.01M117.2 51.9h.01M120.2 51.9h.01M123.1 51.9h.01M126.0 51.9h.01M163.3 51.9h.01M166.2 51.9h.01M169.2 51.9h.01M172.1 51.9h.01M175.0 51.9h.01M177.9 51.9h.01M180.8 51.9h.01M183.8 51.9h.01M60.7 54.8h.01M63.6 54.8h.01M66.5 54.8h.01M69.4 54.8h.01M72.3 54.8h.01M75.2 54.8h.01M78.2 54.8h.01M81.1 54.8h.01M84.0 54.8h.01M112.0 54.8h.01M114.9 54.8h.01M117.8 54.8h.01M120.7 54.8h.01M123.7 54.8h.01M126.6 54.8h.01M171.5 54.8h.01M174.4 54.8h.01M177.3 54.8h.01M180.2 54.8h.01M183.2 54.8h.01M186.1 54.8h.01M62.4 57.8h.01M65.3 57.8h.01M68.2 57.8h.01M71.2 57.8h.01M74.1 57.8h.01M77.0 57.8h.01M79.9 57.8h.01M82.8 57.8h.01M112.6 57.8h.01M115.5 57.8h.01M118.4 57.8h.01M121.3 57.8h.01M124.2 57.8h.01M127.2 57.8h.01M177.3 57.8h.01M180.2 57.8h.01M183.2 57.8h.01M186.1 57.8h.01M189.0 57.8h.01M64.2 60.7h.01M67.1 60.7h.01M70.0 60.7h.01M72.9 60.7h.01M75.8 60.7h.01M78.8 60.7h.01M81.7 60.7h.01M112.6 60.7h.01M115.5 60.7h.01M118.4 60.7h.01M121.3 60.7h.01M124.2 60.7h.01M130.7 60.7h.01M171.5 60.7h.01M174.4 60.7h.01M177.3 60.7h.01M180.2 60.7h.01M183.2 60.7h.01M186.1 60.7h.01M189.0 60.7h.01M191.9 60.7h.01M64.2 63.6h.01M67.1 63.6h.01M70.0 63.6h.01M72.9 63.6h.01M75.8 63.6h.01M78.8 63.6h.01M113.7 63.6h.01M116.7 63.6h.01M119.6 63.6h.01M122.5 63.6h.01M130.7 63.6h.01M170.9 63.6h.01M173.8 63.6h.01M176.8 63.6h.01M179.7 63.6h.01M182.6 63.6h.01M185.5 63.6h.01M188.4 63.6h.01M191.3 63.6h.01M63.0 66.5h.01M65.9 66.5h.01M68.8 66.5h.01M71.8 66.5h.01M74.7 66.5h.01M114.9 66.5h.01M117.8 66.5h.01M120.7 66.5h.01M123.7 66.5h.01M171.5 66.5h.01M174.4 66.5h.01M177.3 66.5h.01M180.2 66.5h.01M183.2 66.5h.01M186.1 66.5h.01M189.0 66.5h.01M191.9 66.5h.01M62.4 69.4h.01M65.3 69.4h.01M68.2 69.4h.01M71.2 69.4h.01M115.5 69.4h.01M118.4 69.4h.01M172.7 69.4h.01M175.6 69.4h.01M178.5 69.4h.01M181.4 69.4h.01M184.3 69.4h.01M187.2 69.4h.01M190.2 69.4h.01M205.3 69.4h.01M61.8 72.3h.01M64.8 72.3h.01M67.7 72.3h.01M205.3 72.3h.01M208.2 72.3h.01M61.8 75.2h.01M64.8 75.2h.01M201.8 75.2h.01M204.8 75.2h.01M61.3 78.2h.01M64.2 78.2h.01M63.0 81.1h.01M65.9 81.1h.01"/>
  <defs>
    <radialGradient id="sgHeatGrad">
      <stop offset="0%"   stop-color="var(--sg-heat-ring)" stop-opacity=".55"/>
      <stop offset="100%" stop-color="var(--sg-heat-ring)" stop-opacity="0"/>
    </radialGradient>
  </defs>
  <g id="sgHeat" hidden="hidden">
    <circle class="sg-heat-blob" r="7" fill="url(#sgHeatGrad)"/>
    <circle class="sg-heat-ring2" r="5.5"/>
    <circle class="sg-heat-ring" r="3.2"/>
    <circle class="sg-heat-core" r="1.5"/>
  </g>
</svg>
