<svg xmlns="http://www.w3.org/2000/svg" width="820" height="520" viewBox="0 0 820 520" font-family="'Segoe UI',system-ui,sans-serif">
  <rect width="820" height="520" fill="#0a0e1a"/>
  <text x="40" y="44" fill="#a78bfa" font-size="24" font-weight="700">Completion Card</text>
  <text x="40" y="68" fill="#8b95b5" font-size="12">Screenshot this and share it to get the Expert Access Key — tag CyberSunil.</text>
  <defs><linearGradient id="cg" x1="0" y1="0" x2="1" y2="1">
    <stop offset="0" stop-color="#141d38"/><stop offset="0.55" stop-color="#0d1327"/><stop offset="1" stop-color="#1a1030"/>
  </linearGradient></defs>
  <rect x="40" y="88" width="740" height="270" rx="20" fill="url(#cg)" stroke="#232f52"/>
  <circle cx="740" cy="110" r="90" fill="#8b5cf6" opacity="0.18"/>
  <text x="66" y="126" font-size="22">🔐</text>
  <text x="98" y="126" fill="#a78bfa" font-size="21" font-weight="700">LLMVault</text>
  <rect x="620" y="108" width="140" height="24" rx="12" fill="none" stroke="#232f52"/><text x="690" y="124" fill="#38bdf8" font-size="10" text-anchor="middle" font-family="monospace">OWASP LLM Top 10 · 2025</text>
  <text x="66" y="176" fill="#8b95b5" font-size="11" letter-spacing="3" font-family="monospace">CERTIFICATE OF COMPLETION</text>
  <text x="66" y="212" fill="#e9ecf6" font-size="30" font-weight="700">CyberSunil</text>
  <text x="66" y="238" fill="#8b95b5" font-size="12">has completed all 10 Core and 10 Advanced labs — prompt injection, data</text>
  <text x="66" y="256" fill="#8b95b5" font-size="12">poisoning, agent exploitation, RAG leakage, model extraction and more.</text>
  <text x="66" y="300" fill="#a78bfa" font-size="24" font-weight="700">20</text><text x="66" y="318" fill="#8b95b5" font-size="9" font-family="monospace">LABS CLEARED</text>
  <text x="180" y="300" fill="#a78bfa" font-size="24" font-weight="700">2400</text><text x="180" y="318" fill="#8b95b5" font-size="9" font-family="monospace">SCORE</text>
  <text x="300" y="300" fill="#a78bfa" font-size="24" font-weight="700">0/5</text><text x="300" y="318" fill="#8b95b5" font-size="9" font-family="monospace">EXPERT</text>
  <line x1="66" y1="330" x2="754" y2="330" stroke="#232f52"/>
  <text x="66" y="348" fill="#5c6788" font-size="11" font-family="monospace">Jul 14, 2026</text>
  <text x="754" y="348" fill="#5c6788" font-size="11" font-family="monospace" text-anchor="end">built by CyberSunil · github.com/CyberSunil/LLMVault</text>
  <text x="40" y="392" fill="#e9ecf6" font-size="15" font-weight="600">Share it</text>
  <rect x="40" y="404" width="740" height="58" rx="12" fill="#0d1327" stroke="#232f52"/>
  <text x="56" y="426" fill="#8b95b5" font-size="11">I just completed all 20 Core + Advanced labs of LLMVault 🔐 — a hands-on OWASP LLM Top 10 range…</text>
  <text x="56" y="446" fill="#5c6788" font-size="11">#AISecurity #LLMSecurity #OWASP #RedTeam #PromptInjection</text>
  <rect x="40" y="476" width="120" height="30" rx="9" fill="#8b5cf6"/><text x="100" y="496" fill="#fff" font-size="12" text-anchor="middle">Copy caption</text>
  <rect x="172" y="476" width="150" height="30" rx="9" fill="#0a66c2"/><text x="247" y="496" fill="#fff" font-size="12" text-anchor="middle">Share on LinkedIn</text>
  <rect x="334" y="476" width="150" height="30" rx="9" fill="#111" stroke="#333"/><text x="409" y="496" fill="#fff" font-size="12" text-anchor="middle">Share on X / Twitter</text>
</svg>
